<svg width="27" height="31" viewBox="0 0 27 31" fill="none" xmlns="http://www.w3.org/2000/svg">
<path d="M10.7942 1.72729C9.34415 2.67892 6.35704 4.63433 4.15295 6.0683C1.95467 7.50227 0.133405 8.69507 0.110204 8.71462C0.0928034 8.74069 0.0638024 9.88135 0.0580021 11.2567L0.0406015 13.7531L1.33405 14.5939C2.04748 15.0567 2.6565 15.4608 2.6797 15.4869C2.7029 15.5129 2.12868 15.9301 1.39205 16.4059L0.0638024 17.2728L0.0580021 19.3716C0.0580021 20.5253 0.0406015 21.6464 0.0290011 21.868L0 22.2591L3.52653 24.5469C11.8498 29.9439 13.4391 30.9737 13.5029 30.9998C13.5377 31.0128 14.4657 30.4457 15.562 29.7288C16.6582 29.0183 18.7811 27.63 20.2776 26.6523C21.7798 25.668 23.8795 24.2992 24.9467 23.6018C26.014 22.9109 26.9072 22.3178 26.9304 22.2982C26.9478 22.2721 26.9768 21.1315 26.9826 19.7562L27 17.2598L25.7298 16.445C25.0279 15.9887 24.4247 15.5911 24.3841 15.5455C24.3377 15.4934 24.6277 15.2718 25.5673 14.6591C26.2576 14.2093 26.855 13.8117 26.8956 13.7791C26.9536 13.727 26.971 13.1795 26.9826 11.2175L27 8.72766L25.2657 7.60003C18.8913 3.45456 13.5261 -0.00650914 13.4797 8.89316e-06C13.4565 8.89316e-06 12.2443 0.775654 10.7942 1.72729ZM18.1779 8.06933C20.7242 9.7184 22.8702 11.1133 22.9573 11.1589L23.1081 11.2501L22.9689 11.3544C22.5454 11.6608 20.498 12.9644 20.44 12.9644C20.3994 12.9644 18.8449 11.9802 16.9888 10.7743C15.1328 9.56848 13.5783 8.57122 13.5435 8.55167C13.5029 8.53863 12.4705 9.1774 11.2524 9.9726C10.0286 10.7678 8.49151 11.7716 7.83609 12.1953C6.98926 12.7493 6.61805 12.9579 6.55424 12.9188C6.12503 12.6841 3.96735 11.2306 3.99635 11.1915C4.01955 11.1719 5.01719 10.5136 6.21203 9.73143C7.40687 8.94927 9.52395 7.57397 10.9102 6.66144C12.2965 5.75543 13.4623 5.02541 13.4913 5.03845C13.5261 5.05148 15.6316 6.41375 18.1779 8.06933ZM14.9008 14.47C15.6896 14.9785 16.3798 15.4282 16.4378 15.4738C16.5248 15.5455 16.3624 15.6759 15.1038 16.4906C14.3149 17.0056 13.6421 17.4358 13.6131 17.4488C13.5377 17.4683 10.5854 15.5651 10.568 15.4803C10.5564 15.4412 13.3695 13.5575 13.4507 13.551C13.4623 13.551 14.1177 13.9682 14.9008 14.47ZM7.49968 18.5894C11.5482 21.2292 13.2999 22.3569 13.4217 22.422C13.5493 22.4872 13.6073 22.4742 13.8219 22.3373C13.9611 22.2461 15.2836 21.3792 16.7684 20.4145C18.2533 19.4433 19.6801 18.5177 19.9353 18.3483L20.411 18.0419L21.745 18.9088C22.4816 19.3846 23.0675 19.7953 23.0443 19.8213C23.0211 19.8409 21.2694 21.0011 19.1465 22.3829C17.0236 23.7713 14.9124 25.1531 14.4541 25.4594C13.7349 25.9353 13.5957 26.0004 13.4855 25.9418C13.4101 25.9092 12.1166 25.0749 10.6086 24.0907C9.10054 23.113 6.98346 21.7377 5.91042 21.0402C4.83738 20.3428 3.97315 19.7562 3.99635 19.7301C4.08335 19.6323 6.53684 18.055 6.60064 18.0484C6.63545 18.0484 7.04146 18.2896 7.49968 18.5894Z" fill="white"/>
</svg>
